<?xml version="1.0" standalone="no"?>
<!DOCTYPE svg PUBLIC "-//W3C//DTD SVG 20010904//EN"
 "http://www.w3.org/TR/2001/REC-SVG-20010904/DTD/svg10.dtd">
<svg version="1.0" xmlns="http://www.w3.org/2000/svg"
 width="700.000000pt" height="700.000000pt" viewBox="0 0 700.000000 700.000000"
 preserveAspectRatio="xMidYMid meet">
<metadata>
Created by potrace 1.14, written by Peter Selinger 2001-2017
</metadata>
<g transform="translate(0.000000,700.000000) scale(0.100000,-0.100000)"
fill="#000000" stroke="none">
<path d="M3404 6982 c-75 -27 -128 -74 -170 -152 -17 -32 -19 -64 -21 -396 -3
-411 -2 -420 73 -503 117 -130 316 -127 434 6 68 78 71 100 68 505 -3 341 -4
354 -25 394 -30 56 -89 113 -140 136 -63 28 -157 32 -219 10z"/>
<path d="M1132 6042 c-76 -27 -130 -77 -165 -152 -32 -66 -31 -188 2 -250 36
-69 492 -520 556 -550 103 -48 241 -24 322 57 82 82 106 188 71 303 -20 64
-24 68 -267 311 -161 162 -261 255 -291 269 -62 32 -158 36 -228 12z"/>
<path d="M5688 6050 c-14 -4 -44 -18 -65 -29 -53 -30 -506 -488 -526 -531 -42
-92 -43 -181 -3 -261 53 -105 144 -162 261 -162 115 -1 138 15 393 267 244
241 282 287 302 358 16 62 8 153 -18 205 -62 122 -218 191 -344 153z"/>
<path d="M3348 5244 c-2 -1 -30 -5 -63 -8 -249 -27 -574 -148 -770 -288 -386
-276 -648 -670 -730 -1102 -27 -140 -30 -173 -29 -356 1 -173 12 -271 47 -426
16 -66 75 -224 121 -319 233 -486 661 -827 1191 -952 148 -34 477 -51 609 -30
156 25 339 72 411 106 11 6 45 20 75 33 116 48 315 170 410 252 120 105 311
319 343 386 4 8 20 35 37 60 109 169 204 442 236 680 10 74 10 372 0 440 -54
373 -190 670 -429 943 -270 307 -658 513 -1075 571 -80 11 -375 19 -384 10z
m312 -588 c272 -33 590 -213 747 -423 15 -21 33 -43 39 -50 27 -28 108 -180
138 -256 58 -146 77 -248 80 -412 10 -538 -354 -1012 -879 -1145 -389 -99
-818 17 -1100 297 -82 82 -175 199 -175 221 0 6 -3 12 -7 14 -11 4 -57 92 -83
158 -123 307 -111 655 32 949 148 303 413 522 743 615 141 40 303 51 465 32z"/>
<path d="M210 3781 c-82 -26 -160 -97 -189 -175 -60 -160 30 -340 193 -387 32
-9 682 -13 725 -5 47 10 111 48 146 88 113 125 104 307 -21 417 -78 68 -91 70
-482 70 -191 0 -358 -4 -372 -8z"/>
<path d="M6003 3764 c-64 -31 -126 -99 -151 -167 -60 -160 46 -349 214 -382
16 -3 179 -5 362 -5 380 0 402 4 482 83 57 55 83 116 86 197 4 115 -48 206
-151 266 l-50 29 -370 2 -370 2 -52 -25z"/>
<path d="M1570 1926 c-71 -18 -120 -59 -361 -303 -205 -207 -228 -234 -248
-288 -75 -199 78 -407 289 -392 40 2 82 13 110 27 50 25 471 435 522 509 129
183 10 435 -214 454 -29 3 -73 -1 -98 -7z"/>
<path d="M5295 1930 c-87 -19 -164 -82 -205 -165 -18 -39 -23 -66 -23 -120 1
-122 13 -139 286 -411 150 -150 259 -250 287 -265 61 -32 184 -34 250 -3 149
69 213 258 136 400 -18 33 -110 132 -269 290 -214 212 -248 241 -295 258 -58
20 -121 26 -167 16z"/>
<path d="M3450 1160 c-14 -4 -41 -10 -60 -15 -22 -5 -56 -29 -92 -65 -86 -87
-88 -96 -88 -501 0 -313 1 -342 20 -392 24 -65 87 -132 149 -160 65 -30 179
-29 242 0 55 27 112 81 142 137 21 40 22 53 25 396 2 254 0 367 -9 398 -37
135 -201 235 -329 202z"/>
</g>
</svg>
